<?xml version="1.0" encoding="UTF-8" standalone="no"?>
<!DOCTYPE svg PUBLIC "-//W3C//DTD SVG 1.1//EN"
 "http://www.w3.org/Graphics/SVG/1.1/DTD/svg11.dtd">
<!-- Generated by graphviz version 2.40.1 (20161225.0304)
 -->
<!-- Title: hierarchy Pages: 1 -->
<svg width="118pt" height="199pt"
 viewBox="0.00 0.00 118.00 199.00" xmlns="http://www.w3.org/2000/svg" xmlns:xlink="http://www.w3.org/1999/xlink">
<g id="graph0" class="graph" transform="scale(1 1) rotate(0) translate(4 195)">
<title>hierarchy</title>
<polygon fill="#ffffff" stroke="transparent" points="-4,4 -4,-195 114,-195 114,4 -4,4"/>
<!-- iModel -->
<g id="node1" class="node">
<title>iModel</title>
<polygon fill="none" stroke="#000000" points="0,-106.5 0,-190.5 110,-190.5 110,-106.5 0,-106.5"/>
<text text-anchor="middle" x="55" y="-175.3" font-family="Times,serif" font-size="14.00" fill="#000000">&lt;&lt;interface&gt;&gt;</text>
<text text-anchor="middle" x="55" y="-160.3" font-family="Times,serif" font-size="14.00" fill="#000000"> \textbf{IModel}</text>
<polyline fill="none" stroke="#000000" points="0,-152.5 110,-152.5 "/>
<text text-anchor="middle" x="55" y="-137.3" font-family="Times,serif" font-size="14.00" fill="#000000">...</text>
<polyline fill="none" stroke="#000000" points="0,-129.5 110,-129.5 "/>
<text text-anchor="start" x="8" y="-114.3" font-family="Times,serif" font-size="14.00" fill="#000000">+ get\_Model()</text>
</g>
<!-- cModel -->
<g id="node2" class="node">
<title>cModel</title>
<polygon fill="none" stroke="#000000" points="4.5,-.5 4.5,-69.5 105.5,-69.5 105.5,-.5 4.5,-.5"/>
<text text-anchor="middle" x="55" y="-54.3" font-family="Times,serif" font-size="14.00" fill="#000000">\textbf{Model}</text>
<polyline fill="none" stroke="#000000" points="4.5,-46.5 105.5,-46.5 "/>
<text text-anchor="middle" x="55" y="-31.3" font-family="Times,serif" font-size="14.00" fill="#000000">...</text>
<polyline fill="none" stroke="#000000" points="4.5,-23.5 105.5,-23.5 "/>
<text text-anchor="middle" x="55" y="-8.3" font-family="Times,serif" font-size="14.00" fill="#000000">...</text>
</g>
<!-- iModel&#45;&gt;cModel -->
<g id="edge1" class="edge">
<title>iModel&#45;&gt;cModel</title>
<path fill="none" stroke="#000000" stroke-dasharray="5,2" d="M55,-96.1481C55,-87.1124 55,-77.9272 55,-69.516"/>
<polygon fill="none" stroke="#000000" points="51.5001,-96.2368 55,-106.2368 58.5001,-96.2368 51.5001,-96.2368"/>
</g>
</g>
</svg>
