<?xml version="1.0" encoding="UTF-8" standalone="no"?>
<!DOCTYPE svg PUBLIC "-//W3C//DTD SVG 1.1//EN"
 "http://www.w3.org/Graphics/SVG/1.1/DTD/svg11.dtd">
<!-- Generated by graphviz version 2.40.1 (20161225.0304)
 -->
<!-- Title: hierarchy Pages: 1 -->
<svg width="432pt" height="352pt"
 viewBox="0.00 0.00 432.00 352.04" xmlns="http://www.w3.org/2000/svg" xmlns:xlink="http://www.w3.org/1999/xlink">
<g id="graph0" class="graph" transform="scale(.9651 .9651) rotate(0) translate(4 360.7617)">
<title>hierarchy</title>
<polygon fill="#ffffff" stroke="transparent" points="-4,4 -4,-360.7617 443.6117,-360.7617 443.6117,4 -4,4"/>
<!-- iModule -->
<g id="node1" class="node">
<title>iModule</title>
<polygon fill="none" stroke="#000000" points="97,-197.2617 97,-356.2617 286,-356.2617 286,-197.2617 97,-197.2617"/>
<text text-anchor="middle" x="191.5" y="-341.0617" font-family="Times,serif" font-size="14.00" fill="#000000">&lt;&lt;interface&gt;&gt;</text>
<text text-anchor="middle" x="191.5" y="-326.0617" font-family="Times,serif" font-size="14.00" fill="#000000"> \textbf{IModule}</text>
<polyline fill="none" stroke="#000000" points="97,-318.2617 286,-318.2617 "/>
<text text-anchor="start" x="105" y="-303.0617" font-family="Times,serif" font-size="14.00" fill="#000000">+ path\_Data</text>
<text text-anchor="start" x="105" y="-288.0617" font-family="Times,serif" font-size="14.00" fill="#000000"> + path\_Input</text>
<text text-anchor="start" x="105" y="-273.0617" font-family="Times,serif" font-size="14.00" fill="#000000"> + path\_Intermediate\_Data</text>
<text text-anchor="start" x="105" y="-258.0617" font-family="Times,serif" font-size="14.00" fill="#000000"> + path\_Output</text>
<polyline fill="none" stroke="#000000" points="97,-250.2617 286,-250.2617 "/>
<text text-anchor="start" x="105" y="-235.0617" font-family="Times,serif" font-size="14.00" fill="#000000">+ generate\_Folder\_Structure()</text>
<text text-anchor="start" x="105" y="-220.0617" font-family="Times,serif" font-size="14.00" fill="#000000"> + load\_Data()</text>
<text text-anchor="start" x="105" y="-205.0617" font-family="Times,serif" font-size="14.00" fill="#000000"> + save\_Data()</text>
</g>
<!-- cF2 -->
<g id="node2" class="node">
<title>cF2</title>
<polygon fill="none" stroke="#000000" points="0,-46.2617 0,-145.2617 165,-145.2617 165,-46.2617 0,-46.2617"/>
<text text-anchor="middle" x="82.5" y="-130.0617" font-family="Times,serif" font-size="14.00" fill="#000000">\textbf{F2}</text>
<polyline fill="none" stroke="#000000" points="0,-122.2617 165,-122.2617 "/>
<text text-anchor="middle" x="82.5" y="-107.0617" font-family="Times,serif" font-size="14.00" fill="#000000">...</text>
<polyline fill="none" stroke="#000000" points="0,-99.2617 165,-99.2617 "/>
<text text-anchor="start" x="8" y="-84.0617" font-family="Times,serif" font-size="14.00" fill="#000000">+ create\_Scatter\_Plate()</text>
<text text-anchor="start" x="8" y="-69.0617" font-family="Times,serif" font-size="14.00" fill="#000000"> + calculate\_Propagation()</text>
<text text-anchor="middle" x="82.5" y="-54.0617" font-family="Times,serif" font-size="14.00" fill="#000000"> ...</text>
</g>
<!-- iModule&#45;&gt;cF2 -->
<g id="edge1" class="edge">
<title>iModule&#45;&gt;cF2</title>
<path fill="none" stroke="#000000" stroke-dasharray="5,2" d="M138.312,-188.4404C129.4244,-173.6821 120.4902,-158.8464 112.4557,-145.5046"/>
<polygon fill="none" stroke="#000000" points="135.3752,-190.3481 143.5324,-197.1091 141.3718,-186.7369 135.3752,-190.3481"/>
</g>
<!-- cNN -->
<g id="node3" class="node">
<title>cNN</title>
<polygon fill="none" stroke="#000000" points="183.5,-31.2617 183.5,-160.2617 417.5,-160.2617 417.5,-31.2617 183.5,-31.2617"/>
<text text-anchor="middle" x="300.5" y="-145.0617" font-family="Times,serif" font-size="14.00" fill="#000000">\textbf{NeuronalNetwork}</text>
<polyline fill="none" stroke="#000000" points="183.5,-137.2617 417.5,-137.2617 "/>
<text text-anchor="start" x="191.5" y="-122.0617" font-family="Times,serif" font-size="14.00" fill="#000000">&#45; previous\_Network: NeuronalNetwork</text>
<text text-anchor="start" x="191.5" y="-107.0617" font-family="Times,serif" font-size="14.00" fill="#000000"> &#45; model: Model</text>
<text text-anchor="middle" x="300.5" y="-92.0617" font-family="Times,serif" font-size="14.00" fill="#000000"> ...</text>
<polyline fill="none" stroke="#000000" points="183.5,-84.2617 417.5,-84.2617 "/>
<text text-anchor="start" x="191.5" y="-69.0617" font-family="Times,serif" font-size="14.00" fill="#000000">+ train\_Network()</text>
<text text-anchor="start" x="191.5" y="-54.0617" font-family="Times,serif" font-size="14.00" fill="#000000"> + test\_Network()</text>
<text text-anchor="middle" x="300.5" y="-39.0617" font-family="Times,serif" font-size="14.00" fill="#000000"> ...</text>
</g>
<!-- iModule&#45;&gt;cNN -->
<g id="edge2" class="edge">
<title>iModule&#45;&gt;cNN</title>
<path fill="none" stroke="#000000" stroke-dasharray="5,2" d="M244.6678,-188.474C250.3438,-179.0487 256.039,-169.5914 261.5071,-160.5113"/>
<polygon fill="none" stroke="#000000" points="241.6282,-186.7369 239.4676,-197.1091 247.6248,-190.3481 241.6282,-186.7369"/>
</g>
<!-- cNN&#45;&gt;cNN -->
<g id="edge3" class="edge">
<title>cNN:es&#45;&gt;cNN:s</title>
<path fill="none" stroke="#000000" d="M425.4402,-101.2457C431.7665,-91.6163 435.5,-79.0465 435.5,-63.2617 435.5,14.2383 345.5,14.2383 300.5,-30.7617"/>
<polygon fill="none" stroke="#000000" points="425.3357,-101.37 424.5349,-108.5365 417.6117,-110.5537 418.4125,-103.3871 425.3357,-101.37"/>
<text text-anchor="middle" x="428.6117" y="-114.3537" font-family="Times,serif" font-size="14.00" fill="#000000">0..1</text>
</g>
</g>
</svg>
