<?xml version="1.0" encoding="UTF-8" standalone="no"?>
<!DOCTYPE svg PUBLIC "-//W3C//DTD SVG 1.1//EN"
 "http://www.w3.org/Graphics/SVG/1.1/DTD/svg11.dtd">
<!-- Generated by graphviz version 2.40.1 (20161225.0304)
 -->
<!-- Title: G Pages: 1 -->
<svg width="177pt" height="540pt"
 viewBox="0.00 0.00 177.00 540.00" xmlns="http://www.w3.org/2000/svg" xmlns:xlink="http://www.w3.org/1999/xlink">
<g id="graph0" class="graph" transform="scale(1 1) rotate(0) translate(4 536)">
<title>G</title>
<polygon fill="#ffffff" stroke="transparent" points="-4,4 -4,-536 173,-536 173,4 -4,4"/>
<!-- a0 -->
<g id="node1" class="node">
<title>a0</title>
<polygon fill="none" stroke="#000000" points="104,-455 24,-455 24,-419 104,-419 104,-455"/>
<text text-anchor="middle" x="64" y="-433.3" font-family="Times,serif" font-size="14.00" fill="#000000">Import data</text>
</g>
<!-- a1 -->
<g id="node2" class="node">
<title>a1</title>
<polygon fill="none" stroke="#000000" points="121.5,-382 6.5,-382 6.5,-346 121.5,-346 121.5,-382"/>
<text text-anchor="middle" x="64" y="-360.3" font-family="Times,serif" font-size="14.00" fill="#000000">execute main task</text>
</g>
<!-- a0&#45;&gt;a1 -->
<g id="edge2" class="edge">
<title>a0&#45;&gt;a1</title>
<path fill="none" stroke="#000000" d="M64,-418.9551C64,-410.8828 64,-401.1764 64,-392.1817"/>
<polygon fill="#000000" stroke="#000000" points="67.5001,-392.0903 64,-382.0904 60.5001,-392.0904 67.5001,-392.0903"/>
</g>
<!-- a2 -->
<g id="node3" class="node">
<title>a2</title>
<polygon fill="none" stroke="#000000" points="91,-309 37,-309 37,-273 91,-273 91,-309"/>
<text text-anchor="middle" x="64" y="-287.3" font-family="Times,serif" font-size="14.00" fill="#000000">test</text>
</g>
<!-- a1&#45;&gt;a2 -->
<g id="edge3" class="edge">
<title>a1&#45;&gt;a2</title>
<path fill="none" stroke="#000000" d="M64,-345.9551C64,-337.8828 64,-328.1764 64,-319.1817"/>
<polygon fill="#000000" stroke="#000000" points="67.5001,-319.0903 64,-309.0904 60.5001,-319.0904 67.5001,-319.0903"/>
</g>
<!-- a3 -->
<g id="node4" class="node">
<title>a3</title>
<polygon fill="none" stroke="#000000" points="95,-236 33,-236 33,-200 95,-200 95,-236"/>
<text text-anchor="middle" x="64" y="-214.3" font-family="Times,serif" font-size="14.00" fill="#000000">evaluate</text>
</g>
<!-- a2&#45;&gt;a3 -->
<g id="edge4" class="edge">
<title>a2&#45;&gt;a3</title>
<path fill="none" stroke="#000000" d="M64,-272.9551C64,-264.8828 64,-255.1764 64,-246.1817"/>
<polygon fill="#000000" stroke="#000000" points="67.5001,-246.0903 64,-236.0904 60.5001,-246.0904 67.5001,-246.0903"/>
</g>
<!-- a4 -->
<g id="node5" class="node">
<title>a4</title>
<polygon fill="none" stroke="#000000" points="64,-163 0,-125 64,-87 128,-125 64,-163"/>
<text text-anchor="middle" x="64" y="-128.8" font-family="Times,serif" font-size="14.00" fill="#000000">next</text>
<text text-anchor="middle" x="64" y="-113.8" font-family="Times,serif" font-size="14.00" fill="#000000">data set?</text>
</g>
<!-- a3&#45;&gt;a4 -->
<g id="edge5" class="edge">
<title>a3&#45;&gt;a4</title>
<path fill="none" stroke="#000000" d="M64,-199.6262C64,-192.0068 64,-182.7735 64,-173.4359"/>
<polygon fill="#000000" stroke="#000000" points="67.5001,-173.3342 64,-163.3342 60.5001,-173.3342 67.5001,-173.3342"/>
</g>
<!-- a4&#45;&gt;a0 -->
<g id="edge7" class="edge">
<title>a4:e&#45;&gt;a0:e</title>
<path fill="none" stroke="#000000" d="M128,-125C170.4741,-125 150,-175.5259 150,-218 150,-364 150,-364 150,-364 150,-398.7534 143.716,-430.4704 113.9951,-436.1118"/>
<polygon fill="#000000" stroke="#000000" points="113.6509,-432.6285 104,-437 114.2706,-439.6011 113.6509,-432.6285"/>
<text text-anchor="middle" x="159.5" y="-287.3" font-family="Times,serif" font-size="14.00" fill="#000000">yes</text>
</g>
<!-- end -->
<g id="node7" class="node">
<title>end</title>
<polygon fill="none" stroke="#000000" points="82,-36 46,-36 46,0 82,0 82,-36"/>
<polyline fill="none" stroke="#000000" points="58,-36 46,-24 "/>
<polyline fill="none" stroke="#000000" points="46,-12 58,0 "/>
<polyline fill="none" stroke="#000000" points="70,0 82,-12 "/>
<polyline fill="none" stroke="#000000" points="82,-24 70,-36 "/>
<text text-anchor="middle" x="64" y="-14.3" font-family="Times,serif" font-size="14.00" fill="#000000">end</text>
</g>
<!-- a4&#45;&gt;end -->
<g id="edge6" class="edge">
<title>a4&#45;&gt;end</title>
<path fill="none" stroke="#000000" d="M64,-86.9745C64,-73.5944 64,-58.8013 64,-46.3572"/>
<polygon fill="#000000" stroke="#000000" points="67.5001,-46.1208 64,-36.1208 60.5001,-46.1208 67.5001,-46.1208"/>
<text text-anchor="middle" x="71" y="-57.8" font-family="Times,serif" font-size="14.00" fill="#000000">no</text>
</g>
<!-- start -->
<g id="node6" class="node">
<title>start</title>
<polygon fill="none" stroke="#000000" points="84,-532 44,-532 44,-492 84,-492 84,-532"/>
<polyline fill="none" stroke="#000000" points="56,-532 44,-520 "/>
<polyline fill="none" stroke="#000000" points="44,-504 56,-492 "/>
<polyline fill="none" stroke="#000000" points="72,-492 84,-504 "/>
<polyline fill="none" stroke="#000000" points="84,-520 72,-532 "/>
<text text-anchor="middle" x="64" y="-508.3" font-family="Times,serif" font-size="14.00" fill="#000000">start</text>
</g>
<!-- start&#45;&gt;a0 -->
<g id="edge1" class="edge">
<title>start&#45;&gt;a0</title>
<path fill="none" stroke="#000000" d="M64,-491.9014C64,-483.7575 64,-474.2068 64,-465.375"/>
<polygon fill="#000000" stroke="#000000" points="67.5001,-465.1016 64,-455.1016 60.5001,-465.1016 67.5001,-465.1016"/>
</g>
</g>
</svg>
