<?xml version="1.0" encoding="UTF-8" standalone="no"?>
<!-- Created with Inkscape (http://www.inkscape.org/) -->

<svg
   xmlns:dc="http://purl.org/dc/elements/1.1/"
   xmlns:cc="http://creativecommons.org/ns#"
   xmlns:rdf="http://www.w3.org/1999/02/22-rdf-syntax-ns#"
   xmlns:svg="http://www.w3.org/2000/svg"
   xmlns="http://www.w3.org/2000/svg"
   xmlns:sodipodi="http://sodipodi.sourceforge.net/DTD/sodipodi-0.dtd"
   xmlns:inkscape="http://www.inkscape.org/namespaces/inkscape"
   width="210mm"
   height="297mm"
   viewBox="0 0 210 297"
   version="1.1"
   id="svg8"
   inkscape:version="0.92.3 (2405546, 2018-03-11)"
   sodipodi:docname="F2_simulation_area.svg">
  <defs
     id="defs2">
    <inkscape:perspective
       sodipodi:type="inkscape:persp3d"
       inkscape:vp_x="-4.9136904 : 170.8006 : 1"
       inkscape:vp_y="0 : 1000 : 0"
       inkscape:vp_z="205.08631 : 170.8006 : 1"
       inkscape:persp3d-origin="100.08631 : 121.3006 : 1"
       id="perspective6290" />
    <marker
       inkscape:stockid="Arrow1Lend"
       orient="auto"
       refY="0.0"
       refX="0.0"
       id="Arrow1Lend"
       style="overflow:visible;"
       inkscape:isstock="true">
      <path
         id="path4528"
         d="M 0.0,0.0 L 5.0,-5.0 L -12.5,0.0 L 5.0,5.0 L 0.0,0.0 z "
         style="fill-rule:evenodd;stroke:#000000;stroke-width:1pt;stroke-opacity:1;fill:#000000;fill-opacity:1"
         transform="scale(0.8) rotate(180) translate(12.5,0)" />
    </marker>
    <marker
       inkscape:stockid="Arrow1Lstart"
       orient="auto"
       refY="0.0"
       refX="0.0"
       id="Arrow1Lstart"
       style="overflow:visible"
       inkscape:isstock="true">
      <path
         id="path4525"
         d="M 0.0,0.0 L 5.0,-5.0 L -12.5,0.0 L 5.0,5.0 L 0.0,0.0 z "
         style="fill-rule:evenodd;stroke:#000000;stroke-width:1pt;stroke-opacity:1;fill:#000000;fill-opacity:1"
         transform="scale(0.8) translate(12.5,0)" />
    </marker>
    <marker
       inkscape:stockid="Arrow1Lstart"
       orient="auto"
       refY="0"
       refX="0"
       id="Arrow1Lstart-4"
       style="overflow:visible"
       inkscape:isstock="true">
      <path
         inkscape:connector-curvature="0"
         id="path4525-9"
         d="M 0,0 5,-5 -12.5,0 5,5 Z"
         style="fill:#000000;fill-opacity:1;fill-rule:evenodd;stroke:#000000;stroke-width:1.00000003pt;stroke-opacity:1"
         transform="matrix(0.8,0,0,0.8,10,0)" />
    </marker>
    <marker
       inkscape:stockid="Arrow1Lend"
       orient="auto"
       refY="0"
       refX="0"
       id="Arrow1Lend-0"
       style="overflow:visible"
       inkscape:isstock="true">
      <path
         inkscape:connector-curvature="0"
         id="path4528-2"
         d="M 0,0 5,-5 -12.5,0 5,5 Z"
         style="fill:#000000;fill-opacity:1;fill-rule:evenodd;stroke:#000000;stroke-width:1.00000003pt;stroke-opacity:1"
         transform="matrix(-0.8,0,0,-0.8,-10,0)" />
    </marker>
    <marker
       inkscape:stockid="Arrow1Lstart"
       orient="auto"
       refY="0"
       refX="0"
       id="Arrow1Lstart-9"
       style="overflow:visible"
       inkscape:isstock="true">
      <path
         inkscape:connector-curvature="0"
         id="path4525-7"
         d="M 0,0 5,-5 -12.5,0 5,5 Z"
         style="fill:#000000;fill-opacity:1;fill-rule:evenodd;stroke:#000000;stroke-width:1.00000003pt;stroke-opacity:1"
         transform="matrix(0.8,0,0,0.8,10,0)" />
    </marker>
    <marker
       inkscape:stockid="Arrow1Lend"
       orient="auto"
       refY="0"
       refX="0"
       id="Arrow1Lend-2"
       style="overflow:visible"
       inkscape:isstock="true">
      <path
         inkscape:connector-curvature="0"
         id="path4528-5"
         d="M 0,0 5,-5 -12.5,0 5,5 Z"
         style="fill:#000000;fill-opacity:1;fill-rule:evenodd;stroke:#000000;stroke-width:1.00000003pt;stroke-opacity:1"
         transform="matrix(-0.8,0,0,-0.8,-10,0)" />
    </marker>
  </defs>
  <sodipodi:namedview
     id="base"
     pagecolor="#ffffff"
     bordercolor="#666666"
     borderopacity="1.0"
     inkscape:pageopacity="0.0"
     inkscape:pageshadow="2"
     inkscape:zoom="0.98994949"
     inkscape:cx="282.90004"
     inkscape:cy="697.49469"
     inkscape:document-units="mm"
     inkscape:current-layer="layer1"
     showgrid="false"
     inkscape:measure-start="0,0"
     inkscape:measure-end="0,0"
     inkscape:window-width="1920"
     inkscape:window-height="1031"
     inkscape:window-x="0"
     inkscape:window-y="25"
     inkscape:window-maximized="1"
     inkscape:snap-grids="true" />
  <metadata
     id="metadata5">
    <rdf:RDF>
      <cc:Work
         rdf:about="">
        <dc:format>image/svg+xml</dc:format>
        <dc:type
           rdf:resource="http://purl.org/dc/dcmitype/StillImage" />
        <dc:title></dc:title>
      </cc:Work>
    </rdf:RDF>
  </metadata>
  <g
     inkscape:label="Layer 1"
     inkscape:groupmode="layer"
     id="layer1">
    <path
       style="fill:none;stroke:#000000;stroke-width:0.356;stroke-linecap:butt;stroke-linejoin:miter;stroke-miterlimit:4;stroke-dasharray:none;stroke-opacity:1;marker-start:url(#Arrow1Lstart);marker-end:url(#Arrow1Lend)"
       d="M 77.816068,132.60052 H 126.42436"
       id="path4523"
       inkscape:connector-curvature="0" />
    <g
       id="g6567"
       transform="translate(0,0.54521077)">
      <path
         inkscape:connector-curvature="0"
         id="path4523-0"
         d="M 142.22558,63.885533 V 112.49383"
         style="fill:none;stroke:#000000;stroke-width:0.35559464;stroke-linecap:butt;stroke-linejoin:miter;stroke-miterlimit:4;stroke-dasharray:none;stroke-opacity:1;marker-start:url(#Arrow1Lstart-4);marker-end:url(#Arrow1Lend-0)" />
      <text
         id="text6100"
         y="87.299988"
         x="146.73943"
         style="font-style:normal;font-variant:normal;font-weight:normal;font-stretch:normal;font-size:3.52777767px;line-height:1.25;font-family:sans-serif;-inkscape-font-specification:'sans-serif, Normal';font-variant-ligatures:normal;font-variant-caps:normal;font-variant-numeric:normal;font-feature-settings:normal;text-align:start;letter-spacing:0px;word-spacing:0px;writing-mode:lr-tb;text-anchor:start;fill:#000000;fill-opacity:1;stroke:none;stroke-width:0.26458332"
         xml:space="preserve"><tspan
           style="font-style:normal;font-variant:normal;font-weight:normal;font-stretch:normal;font-size:3.52777767px;font-family:sans-serif;-inkscape-font-specification:'sans-serif, Normal';font-variant-ligatures:normal;font-variant-caps:normal;font-variant-numeric:normal;font-feature-settings:normal;text-align:start;writing-mode:lr-tb;text-anchor:start;stroke-width:0.26458332"
           y="87.299988"
           x="146.73943"
           id="tspan6098"
           sodipodi:role="line">number of samples</tspan><tspan
           id="tspan6369"
           style="font-style:normal;font-variant:normal;font-weight:normal;font-stretch:normal;font-size:3.52777767px;font-family:sans-serif;-inkscape-font-specification:'sans-serif, Normal';font-variant-ligatures:normal;font-variant-caps:normal;font-variant-numeric:normal;font-feature-settings:normal;text-align:start;writing-mode:lr-tb;text-anchor:start;stroke-width:0.26458332"
           y="91.709709"
           x="146.73943"
           sodipodi:role="line">simulation distance</tspan></text>
    </g>
    <text
       xml:space="preserve"
       style="font-style:normal;font-variant:normal;font-weight:normal;font-stretch:normal;font-size:3.52777767px;line-height:1.25;font-family:sans-serif;-inkscape-font-specification:'sans-serif, Normal';font-variant-ligatures:normal;font-variant-caps:normal;font-variant-numeric:normal;font-feature-settings:normal;text-align:center;letter-spacing:0px;word-spacing:0px;writing-mode:lr-tb;text-anchor:middle;fill:#000000;fill-opacity:1;stroke:none;stroke-width:0.26458332"
       x="102.18085"
       y="139.10376"
       id="text6100-1"><tspan
         sodipodi:role="line"
         id="tspan6098-3"
         x="102.18085"
         y="139.10376"
         style="font-style:normal;font-variant:normal;font-weight:normal;font-stretch:normal;font-size:3.52777767px;font-family:sans-serif;-inkscape-font-specification:'sans-serif, Normal';font-variant-ligatures:normal;font-variant-caps:normal;font-variant-numeric:normal;font-feature-settings:normal;text-align:center;writing-mode:lr-tb;text-anchor:middle;stroke-width:0.26458332">number of samples</tspan><tspan
         sodipodi:role="line"
         x="102.18085"
         y="143.51349"
         style="font-style:normal;font-variant:normal;font-weight:normal;font-stretch:normal;font-size:3.52777767px;font-family:sans-serif;-inkscape-font-specification:'sans-serif, Normal';font-variant-ligatures:normal;font-variant-caps:normal;font-variant-numeric:normal;font-feature-settings:normal;text-align:center;writing-mode:lr-tb;text-anchor:middle;stroke-width:0.26458332"
         id="tspan6569">simulation distance</tspan></text>
    <g
       id="g6355">
      <path
         inkscape:connector-curvature="0"
         id="rect10"
         d="m 77.438237,75.791928 c 16.454655,0 32.909313,0 49.363963,0 0,16.454656 0,32.909312 0,49.363962 -16.45465,0 -32.909308,0 -49.363963,0 0,-16.45465 0,-32.909306 0,-49.363962 z"
         style="fill:none;stroke:#000000;stroke-width:0.63603497;stroke-miterlimit:4;stroke-dasharray:none;stroke-opacity:1" />
      <path
         id="rect10-3"
         transform="scale(0.26458333)"
         d="M 331 242.08984 L 331 286.45703 L 479.25195 286.45703 L 479.25195 428.66211 L 517.57227 428.66211 L 517.57227 242.08984 L 331 242.08984 z "
         style="fill:none;stroke:#000000;stroke-width:2.40391159;stroke-miterlimit:4;stroke-dasharray:none;stroke-opacity:1" />
      <path
         style="fill:none;stroke:#000000;stroke-width:2.40391162;stroke-miterlimit:4;stroke-dasharray:2.40391162,4.80782324;stroke-opacity:1;stroke-dashoffset:0"
         d="M 312.28516 264.51953 L 312.28516 286.45703 L 479.25195 286.45703 L 479.25195 451.0918 L 498.85742 451.0918 L 498.85742 264.51953 L 312.28516 264.51953 z "
         id="rect10-3-9"
         transform="scale(0.26458333)" />
      <path
         style="fill:#000000;fill-opacity:1;stroke:none;stroke-width:0.63603491;stroke-miterlimit:4;stroke-dasharray:none;stroke-opacity:1"
         d="M 77.438263,75.791951 V 125.15587 H 126.80217 V 75.791951 Z m 0.681612,0.652158 h 4.329968 v 4.329967 h -4.329968 z m 4.852417,0 h 4.329967 v 4.329967 h -4.329967 z m 4.852416,0 h 4.329451 v 4.329967 h -4.329451 z m 4.8519,0 h 4.32997 v 4.329967 h -4.32997 z m 4.852419,0 h 4.329963 v 4.329967 h -4.329963 z m 4.852413,0 h 4.32945 v 4.329967 h -4.32945 z m 4.8519,0 h 4.32997 v 4.329967 h -4.32997 z m 4.85242,0 h 4.32997 v 4.329967 h -4.32997 z m 4.85242,0 h 4.32945 v 4.329967 h -4.32945 z m 4.8519,0 h 4.32996 v 4.329967 h -4.32996 z m -43.670205,4.859133 h 4.329968 v 4.329452 h -4.329968 z m 4.852417,0 h 4.329967 v 4.329452 h -4.329967 z m 4.852416,0 h 4.329451 v 4.329452 h -4.329451 z m 4.8519,0 h 4.32997 v 4.329452 h -4.32997 z m 4.852419,0 h 4.329963 v 4.329452 h -4.329963 z m 4.852413,0 h 4.32945 v 4.329452 h -4.32945 z m 4.8519,0 h 4.32997 v 4.329452 h -4.32997 z m 4.85242,0 h 4.32997 v 4.329452 h -4.32997 z m 4.85242,0 h 4.32945 v 4.329452 h -4.32945 z m 4.8519,0 h 4.32996 v 4.329452 h -4.32996 z M 78.119875,86.16186 h 4.329968 v 4.32997 h -4.329968 z m 4.852417,0 h 4.329967 v 4.32997 h -4.329967 z m 4.852416,0 h 4.329451 v 4.32997 h -4.329451 z m 4.8519,0 h 4.32997 v 4.32997 h -4.32997 z m 4.852419,0 h 4.329963 v 4.32997 h -4.329963 z m 4.852413,0 h 4.32945 v 4.32997 h -4.32945 z m 4.8519,0 h 4.32997 v 4.32997 h -4.32997 z m 4.85242,0 h 4.32997 v 4.32997 h -4.32997 z m 4.85242,0 h 4.32945 v 4.32997 h -4.32945 z m 4.8519,0 h 4.32996 v 4.32997 h -4.32996 z m -43.670205,4.859137 h 4.329968 v 4.329451 h -4.329968 z m 4.852417,0 h 4.329967 v 4.329451 h -4.329967 z m 4.852416,0 h 4.329451 v 4.329451 h -4.329451 z m 4.8519,0 h 4.32997 v 4.329451 h -4.32997 z m 4.852419,0 h 4.329963 v 4.329451 h -4.329963 z m 4.852413,0 h 4.32945 v 4.329451 h -4.32945 z m 4.8519,0 h 4.32997 v 4.329451 h -4.32997 z m 4.85242,0 h 4.32997 v 4.329451 h -4.32997 z m 4.85242,0 h 4.32945 v 4.329451 h -4.32945 z m 4.8519,0 h 4.32996 v 4.329451 h -4.32996 z m -43.670205,4.858617 h 4.329968 v 4.329966 h -4.329968 z m 4.852417,0 h 4.329967 v 4.329966 h -4.329967 z m 4.852416,0 h 4.329451 v 4.329966 h -4.329451 z m 4.8519,0 h 4.32997 v 4.329966 h -4.32997 z m 4.852419,0 h 4.329963 v 4.329966 h -4.329963 z m 4.852413,0 h 4.32945 v 4.329966 h -4.32945 z m 4.8519,0 h 4.32997 v 4.329966 h -4.32997 z m 4.85242,0 h 4.32997 v 4.329966 h -4.32997 z m 4.85242,0 h 4.32945 v 4.329966 h -4.32945 z m 4.8519,0 h 4.32996 v 4.329966 h -4.32996 z m -43.670205,4.859136 h 4.329968 v 4.32945 h -4.329968 z m 4.852417,0 h 4.329967 v 4.32945 h -4.329967 z m 4.852416,0 h 4.329451 v 4.32945 h -4.329451 z m 4.8519,0 h 4.32997 v 4.32945 h -4.32997 z m 4.852419,0 h 4.329963 v 4.32945 h -4.329963 z m 4.852413,0 h 4.32945 v 4.32945 h -4.32945 z m 4.8519,0 h 4.32997 v 4.32945 h -4.32997 z m 4.85242,0 h 4.32997 v 4.32945 h -4.32997 z m 4.85242,0 h 4.32945 v 4.32945 h -4.32945 z m 4.8519,0 h 4.32996 v 4.32945 h -4.32996 z m -43.670205,4.85862 h 4.329968 v 4.32997 h -4.329968 z m 4.852417,0 h 4.329967 v 4.32997 h -4.329967 z m 4.852416,0 h 4.329451 v 4.32997 h -4.329451 z m 4.8519,0 h 4.32997 v 4.32997 h -4.32997 z m 4.852419,0 h 4.329963 v 4.32997 h -4.329963 z m 4.852413,0 h 4.32945 v 4.32997 h -4.32945 z m 4.8519,0 h 4.32997 v 4.32997 h -4.32997 z m 4.85242,0 h 4.32997 v 4.32997 h -4.32997 z m 4.85242,0 h 4.32945 v 4.32997 h -4.32945 z m 4.8519,0 h 4.32996 v 4.32997 h -4.32996 z m -43.670205,4.85913 h 4.329968 v 4.32997 h -4.329968 z m 4.852417,0 h 4.329967 v 4.32997 h -4.329967 z m 4.852416,0 h 4.329451 v 4.32997 h -4.329451 z m 4.8519,0 h 4.32997 v 4.32997 h -4.32997 z m 4.852419,0 h 4.329963 v 4.32997 h -4.329963 z m 4.852413,0 h 4.32945 v 4.32997 h -4.32945 z m 4.8519,0 h 4.32997 v 4.32997 h -4.32997 z m 4.85242,0 h 4.32997 v 4.32997 h -4.32997 z m 4.85242,0 h 4.32945 v 4.32997 h -4.32945 z m 4.8519,0 h 4.32996 v 4.32997 h -4.32996 z m -43.670205,4.85914 h 4.329968 v 4.32945 h -4.329968 z m 4.852417,0 h 4.329967 v 4.32945 h -4.329967 z m 4.852416,0 h 4.329451 v 4.32945 h -4.329451 z m 4.8519,0 h 4.32997 v 4.32945 h -4.32997 z m 4.852419,0 h 4.329963 v 4.32945 h -4.329963 z m 4.852413,0 h 4.32945 v 4.32945 h -4.32945 z m 4.8519,0 h 4.32997 v 4.32945 h -4.32997 z m 4.85242,0 h 4.32997 v 4.32945 h -4.32997 z m 4.85242,0 h 4.32945 v 4.32945 h -4.32945 z m 4.8519,0 h 4.32996 v 4.32945 h -4.32996 z m -43.670205,4.85862 h 4.329968 v 4.32997 h -4.329968 z m 4.852417,0 h 4.329967 v 4.32997 h -4.329967 z m 4.852416,0 h 4.329451 v 4.32997 h -4.329451 z m 4.8519,0 h 4.32997 v 4.32997 h -4.32997 z m 4.852419,0 h 4.329963 v 4.32997 h -4.329963 z m 4.852413,0 h 4.32945 v 4.32997 h -4.32945 z m 4.8519,0 h 4.32997 v 4.32997 h -4.32997 z m 4.85242,0 h 4.32997 v 4.32997 h -4.32997 z m 4.85242,0 h 4.32945 v 4.32997 h -4.32945 z m 4.8519,0 h 4.32996 v 4.32997 h -4.32996 z"
         id="rect10-2"
         inkscape:connector-curvature="0" />
    </g>
    <path
       style="fill:none;stroke:#000000;stroke-width:0.356;stroke-linecap:butt;stroke-linejoin:miter;stroke-miterlimit:4;stroke-dasharray:none;stroke-opacity:1;marker-start:url(#Arrow1Lstart-9);marker-end:url(#Arrow1Lend-2)"
       d="m 126.45893,132.56398 15.76665,-19.52494"
       id="path4523-8"
       inkscape:connector-curvature="0"
       sodipodi:nodetypes="cc" />
    <text
       xml:space="preserve"
       style="font-style:normal;font-variant:normal;font-weight:normal;font-stretch:normal;font-size:3.88055563px;line-height:1.25;font-family:sans-serif;-inkscape-font-specification:'sans-serif, Normal';font-variant-ligatures:normal;font-variant-caps:normal;font-variant-numeric:normal;font-feature-settings:normal;text-align:start;letter-spacing:0px;word-spacing:0px;writing-mode:lr-tb;text-anchor:start;fill:#000000;fill-opacity:1;stroke:none;stroke-width:0.26458332"
       x="136.99716"
       y="125.8357"
       id="text8797"><tspan
         sodipodi:role="line"
         id="tspan8795"
         x="136.99716"
         y="125.8357"
         style="stroke-width:0.26458332">distance</tspan></text>
    <text
       xml:space="preserve"
       style="font-style:normal;font-variant:normal;font-weight:normal;font-stretch:normal;font-size:3.88055563px;line-height:1.25;font-family:sans-serif;-inkscape-font-specification:'sans-serif, Normal';font-variant-ligatures:normal;font-variant-caps:normal;font-variant-numeric:normal;font-feature-settings:normal;text-align:start;letter-spacing:0px;word-spacing:0px;writing-mode:lr-tb;text-anchor:start;fill:#000000;fill-opacity:1;stroke:none;stroke-width:0.26458332"
       x="86.893372"
       y="61.861015"
       id="text8825"><tspan
         sodipodi:role="line"
         id="tspan8823"
         x="86.893372"
         y="61.861015"
         style="stroke-width:0.26458332">layer N</tspan></text>
  </g>
</svg>
