<?xml version="1.0" encoding="UTF-8" standalone="no"?>
<!DOCTYPE svg PUBLIC "-//W3C//DTD SVG 1.1//EN"
 "http://www.w3.org/Graphics/SVG/1.1/DTD/svg11.dtd">
<!-- Generated by graphviz version 2.40.1 (20161225.0304)
 -->
<!-- Title: G Pages: 1 -->
<svg width="277pt" height="497pt"
 viewBox="0.00 0.00 277.00 497.00" xmlns="http://www.w3.org/2000/svg" xmlns:xlink="http://www.w3.org/1999/xlink">
<g id="graph0" class="graph" transform="scale(1 1) rotate(0) translate(4 493)">
<title>G</title>
<polygon fill="#ffffff" stroke="transparent" points="-4,4 -4,-493 273,-493 273,4 -4,4"/>
<!-- a0 -->
<g id="node1" class="node">
<title>a0</title>
<polygon fill="none" stroke="#000000" points="167,-398 65,-398 65,-362 167,-362 167,-398"/>
<text text-anchor="middle" x="116" y="-376.3" font-family="Times,serif" font-size="14.00" fill="#000000">F2: Import data</text>
</g>
<!-- a1 -->
<g id="node2" class="node">
<title>a1</title>
<polygon fill="none" stroke="#000000" points="219.5,-325 12.5,-325 12.5,-289 219.5,-289 219.5,-325"/>
<text text-anchor="middle" x="116" y="-303.3" font-family="Times,serif" font-size="14.00" fill="#000000">F2: Generate and save scatter plate</text>
</g>
<!-- a0&#45;&gt;a1 -->
<g id="edge2" class="edge">
<title>a0&#45;&gt;a1</title>
<path fill="none" stroke="#000000" d="M116,-361.9551C116,-353.8828 116,-344.1764 116,-335.1817"/>
<polygon fill="#000000" stroke="#000000" points="119.5001,-335.0903 116,-325.0904 112.5001,-335.0904 119.5001,-335.0903"/>
</g>
<!-- a2 -->
<g id="node3" class="node">
<title>a2</title>
<polygon fill="none" stroke="#000000" points="232,-252 0,-252 0,-214 232,-214 232,-252"/>
<text text-anchor="middle" x="116" y="-236.8" font-family="Times,serif" font-size="14.00" fill="#000000">F2: Load scatter plate and (next) image</text>
<text text-anchor="middle" x="116" y="-221.8" font-family="Times,serif" font-size="14.00" fill="#000000">$ \rightarrow $ Calculate specle</text>
</g>
<!-- a1&#45;&gt;a2 -->
<g id="edge3" class="edge">
<title>a1&#45;&gt;a2</title>
<path fill="none" stroke="#000000" d="M116,-288.7079C116,-280.7096 116,-271.1287 116,-262.1859"/>
<polygon fill="#000000" stroke="#000000" points="119.5001,-262.1139 116,-252.114 112.5001,-262.114 119.5001,-262.1139"/>
</g>
<!-- a3 -->
<g id="node4" class="node">
<title>a3</title>
<polygon fill="none" stroke="#000000" points="116,-163 60,-125 116,-87 172,-125 116,-163"/>
<text text-anchor="middle" x="116" y="-128.8" font-family="Times,serif" font-size="14.00" fill="#000000">next</text>
<text text-anchor="middle" x="116" y="-113.8" font-family="Times,serif" font-size="14.00" fill="#000000">image?</text>
</g>
<!-- a2&#45;&gt;a3 -->
<g id="edge4" class="edge">
<title>a2&#45;&gt;a3</title>
<path fill="none" stroke="#000000" d="M116,-213.9404C116,-202.6353 116,-187.7498 116,-173.3978"/>
<polygon fill="#000000" stroke="#000000" points="119.5001,-173.1005 116,-163.1005 112.5001,-173.1005 119.5001,-173.1005"/>
</g>
<!-- a3&#45;&gt;a2 -->
<g id="edge6" class="edge">
<title>a3:e&#45;&gt;a2:e</title>
<path fill="none" stroke="#000000" d="M172,-125C223.0492,-125 278.4977,-218.3464 241.92,-231.4733"/>
<polygon fill="#000000" stroke="#000000" points="241.3512,-228.0195 232,-233 242.4161,-234.9381 241.3512,-228.0195"/>
<text text-anchor="middle" x="259.5" y="-184.8" font-family="Times,serif" font-size="14.00" fill="#000000">yes</text>
</g>
<!-- end -->
<g id="node6" class="node">
<title>end</title>
<polygon fill="none" stroke="#000000" points="134,-36 98,-36 98,0 134,0 134,-36"/>
<polyline fill="none" stroke="#000000" points="110,-36 98,-24 "/>
<polyline fill="none" stroke="#000000" points="98,-12 110,0 "/>
<polyline fill="none" stroke="#000000" points="122,0 134,-12 "/>
<polyline fill="none" stroke="#000000" points="134,-24 122,-36 "/>
<text text-anchor="middle" x="116" y="-14.3" font-family="Times,serif" font-size="14.00" fill="#000000">end</text>
</g>
<!-- a3&#45;&gt;end -->
<g id="edge5" class="edge">
<title>a3&#45;&gt;end</title>
<path fill="none" stroke="#000000" d="M116,-86.9745C116,-73.5944 116,-58.8013 116,-46.3572"/>
<polygon fill="#000000" stroke="#000000" points="119.5001,-46.1208 116,-36.1208 112.5001,-46.1208 119.5001,-46.1208"/>
<text text-anchor="middle" x="123" y="-57.8" font-family="Times,serif" font-size="14.00" fill="#000000">no</text>
</g>
<!-- start -->
<g id="node5" class="node">
<title>start</title>
<polygon fill="none" stroke="#000000" points="136,-489 96,-489 96,-449 136,-449 136,-489"/>
<polyline fill="none" stroke="#000000" points="108,-489 96,-477 "/>
<polyline fill="none" stroke="#000000" points="96,-461 108,-449 "/>
<polyline fill="none" stroke="#000000" points="124,-449 136,-461 "/>
<polyline fill="none" stroke="#000000" points="136,-477 124,-489 "/>
<text text-anchor="middle" x="116" y="-465.3" font-family="Times,serif" font-size="14.00" fill="#000000">start</text>
</g>
<!-- start&#45;&gt;a0 -->
<g id="edge1" class="edge">
<title>start&#45;&gt;a0</title>
<path fill="none" stroke="#000000" d="M116,-448.8045C116,-436.745 116,-421.2502 116,-408.019"/>
<polygon fill="#000000" stroke="#000000" points="119.5001,-408.0021 116,-398.0021 112.5001,-408.0021 119.5001,-408.0021"/>
<text text-anchor="middle" x="159.5" y="-419.8" font-family="Times,serif" font-size="14.00" fill="#000000">python main.py</text>
</g>
</g>
</svg>
