<?xml version="1.0" encoding="UTF-8" standalone="no"?>
<!DOCTYPE svg PUBLIC "-//W3C//DTD SVG 1.1//EN"
 "http://www.w3.org/Graphics/SVG/1.1/DTD/svg11.dtd">
<!-- Generated by graphviz version 2.40.1 (20161225.0304)
 -->
<!-- Title: G Pages: 1 -->
<svg width="223pt" height="556pt"
 viewBox="0.00 0.00 223.00 556.00" xmlns="http://www.w3.org/2000/svg" xmlns:xlink="http://www.w3.org/1999/xlink">
<g id="graph0" class="graph" transform="scale(1 1) rotate(0) translate(4 552)">
<title>G</title>
<polygon fill="#ffffff" stroke="transparent" points="-4,4 -4,-552 219,-552 219,4 -4,4"/>
<!-- a0 -->
<g id="node1" class="node">
<title>a0</title>
<polygon fill="none" stroke="#000000" points="198,-457 0,-457 0,-419 198,-419 198,-457"/>
<text text-anchor="middle" x="99" y="-441.8" font-family="Times,serif" font-size="14.00" fill="#000000">NN: Import data</text>
<text text-anchor="middle" x="99" y="-426.8" font-family="Times,serif" font-size="14.00" fill="#000000">(e.g. from a specific ``fog layer&#39;&#39;)</text>
</g>
<!-- a1 -->
<g id="node2" class="node">
<title>a1</title>
<polygon fill="none" stroke="#000000" points="159.5,-382 38.5,-382 38.5,-346 159.5,-346 159.5,-382"/>
<text text-anchor="middle" x="99" y="-360.3" font-family="Times,serif" font-size="14.00" fill="#000000">NN: Train network</text>
</g>
<!-- a0&#45;&gt;a1 -->
<g id="edge2" class="edge">
<title>a0&#45;&gt;a1</title>
<path fill="none" stroke="#000000" d="M99,-418.9432C99,-410.8174 99,-401.1682 99,-392.2408"/>
<polygon fill="#000000" stroke="#000000" points="102.5001,-392.2268 99,-382.2269 95.5001,-392.2269 102.5001,-392.2268"/>
</g>
<!-- a2 -->
<g id="node3" class="node">
<title>a2</title>
<polygon fill="none" stroke="#000000" points="156.5,-309 41.5,-309 41.5,-273 156.5,-273 156.5,-309"/>
<text text-anchor="middle" x="99" y="-287.3" font-family="Times,serif" font-size="14.00" fill="#000000">NN: Test network</text>
</g>
<!-- a1&#45;&gt;a2 -->
<g id="edge3" class="edge">
<title>a1&#45;&gt;a2</title>
<path fill="none" stroke="#000000" d="M99,-345.9551C99,-337.8828 99,-328.1764 99,-319.1817"/>
<polygon fill="#000000" stroke="#000000" points="102.5001,-319.0903 99,-309.0904 95.5001,-319.0904 102.5001,-319.0903"/>
</g>
<!-- a21 -->
<g id="node4" class="node">
<title>a21</title>
<polygon fill="none" stroke="#000000" points="150,-236 48,-236 48,-200 150,-200 150,-236"/>
<text text-anchor="middle" x="99" y="-214.3" font-family="Times,serif" font-size="14.00" fill="#000000">NN: Evaluation</text>
</g>
<!-- a2&#45;&gt;a21 -->
<g id="edge4" class="edge">
<title>a2&#45;&gt;a21</title>
<path fill="none" stroke="#000000" d="M99,-272.9551C99,-264.8828 99,-255.1764 99,-246.1817"/>
<polygon fill="#000000" stroke="#000000" points="102.5001,-246.0903 99,-236.0904 95.5001,-246.0904 102.5001,-246.0903"/>
</g>
<!-- a3 -->
<g id="node5" class="node">
<title>a3</title>
<polygon fill="none" stroke="#000000" points="99,-163 35,-125 99,-87 163,-125 99,-163"/>
<text text-anchor="middle" x="99" y="-128.8" font-family="Times,serif" font-size="14.00" fill="#000000">next</text>
<text text-anchor="middle" x="99" y="-113.8" font-family="Times,serif" font-size="14.00" fill="#000000">data set?</text>
</g>
<!-- a21&#45;&gt;a3 -->
<g id="edge5" class="edge">
<title>a21&#45;&gt;a3</title>
<path fill="none" stroke="#000000" d="M99,-199.6262C99,-192.0068 99,-182.7735 99,-173.4359"/>
<polygon fill="#000000" stroke="#000000" points="102.5001,-173.3342 99,-163.3342 95.5001,-173.3342 102.5001,-173.3342"/>
</g>
<!-- a3&#45;&gt;a0 -->
<g id="edge7" class="edge">
<title>a3:e&#45;&gt;a0:e</title>
<path fill="none" stroke="#000000" d="M163,-125C206.8584,-125 196,-174.1416 196,-218 196,-364 196,-364 196,-364 196,-388.4606 197.5555,-394.5434 198,-419 198.0528,-421.9023 199.0671,-425.0544 200.0326,-427.9416"/>
<polygon fill="#000000" stroke="#000000" points="196.5502,-427.5048 198,-438 203.4115,-428.8914 196.5502,-427.5048"/>
<text text-anchor="middle" x="205.5" y="-287.3" font-family="Times,serif" font-size="14.00" fill="#000000">yes</text>
</g>
<!-- end -->
<g id="node7" class="node">
<title>end</title>
<polygon fill="none" stroke="#000000" points="117,-36 81,-36 81,0 117,0 117,-36"/>
<polyline fill="none" stroke="#000000" points="93,-36 81,-24 "/>
<polyline fill="none" stroke="#000000" points="81,-12 93,0 "/>
<polyline fill="none" stroke="#000000" points="105,0 117,-12 "/>
<polyline fill="none" stroke="#000000" points="117,-24 105,-36 "/>
<text text-anchor="middle" x="99" y="-14.3" font-family="Times,serif" font-size="14.00" fill="#000000">end</text>
</g>
<!-- a3&#45;&gt;end -->
<g id="edge6" class="edge">
<title>a3&#45;&gt;end</title>
<path fill="none" stroke="#000000" d="M99,-86.9745C99,-73.5944 99,-58.8013 99,-46.3572"/>
<polygon fill="#000000" stroke="#000000" points="102.5001,-46.1208 99,-36.1208 95.5001,-46.1208 102.5001,-46.1208"/>
<text text-anchor="middle" x="106" y="-57.8" font-family="Times,serif" font-size="14.00" fill="#000000">no</text>
</g>
<!-- start -->
<g id="node6" class="node">
<title>start</title>
<polygon fill="none" stroke="#000000" points="119,-548 79,-548 79,-508 119,-508 119,-548"/>
<polyline fill="none" stroke="#000000" points="91,-548 79,-536 "/>
<polyline fill="none" stroke="#000000" points="79,-520 91,-508 "/>
<polyline fill="none" stroke="#000000" points="107,-508 119,-520 "/>
<polyline fill="none" stroke="#000000" points="119,-536 107,-548 "/>
<text text-anchor="middle" x="99" y="-524.3" font-family="Times,serif" font-size="14.00" fill="#000000">start</text>
</g>
<!-- start&#45;&gt;a0 -->
<g id="edge1" class="edge">
<title>start&#45;&gt;a0</title>
<path fill="none" stroke="#000000" d="M99,-507.5776C99,-495.6281 99,-480.3432 99,-467.1448"/>
<polygon fill="#000000" stroke="#000000" points="102.5001,-467.1107 99,-457.1108 95.5001,-467.1108 102.5001,-467.1107"/>
<text text-anchor="middle" x="142.5" y="-478.8" font-family="Times,serif" font-size="14.00" fill="#000000">python main.py</text>
</g>
</g>
</svg>
